<svg width="130" height="31" viewBox="0 0 130 31" fill="none" xmlns="http://www.w3.org/2000/svg">
<g clip-path="url(#clip0_8_673)">
<path d="M34.555 20.3097V3.24989C34.555 0.8448 32.374 0.0689633 31.2189 0C31.2016 0 31.1758 0 31.1585 0H4.19388C2.77151 0 1.6681 0.43102 0.926742 1.28444C-0.0904668 2.43958 -0.0215036 3.91367 0.0129781 4.3102V20.2666C0.0129781 21.5683 0.409517 22.5855 1.19397 23.301C2.28015 24.2837 3.67665 24.2578 4.02147 24.232H19.7796C20.3571 24.232 20.8313 23.7665 20.8313 23.1803C20.8313 22.5941 20.3658 22.1286 19.7796 22.1286H3.97837C3.97837 22.1286 3.9094 22.1286 3.88354 22.1286C3.88354 22.1286 3.08184 22.1803 2.59048 21.7234C2.27153 21.4303 2.10774 20.9304 2.10774 20.258V4.24986C2.10774 4.24986 2.10774 4.16366 2.10774 4.12056C2.10774 4.11194 2.01291 3.21541 2.5129 2.65509C2.84047 2.28441 3.40942 2.09476 4.19388 2.09476H31.1154C31.4689 2.12924 32.4602 2.30165 32.4602 3.24989V20.3269C32.4602 20.3269 32.4602 20.37 32.4602 20.3959C32.4602 20.3959 32.4602 20.9304 32.1585 21.2666C31.9516 21.4907 31.6068 21.6114 31.124 21.6286C30.7189 21.6372 30.3654 21.6286 30.0206 21.6114C28.6414 21.5596 27.3397 21.5165 26.0552 23.6199C25.8225 23.9992 24.6156 25.4819 23.3743 26.9819V13.3961C24.9001 13.172 26.5207 12.853 28.2621 12.4306C28.8224 12.2927 29.1672 11.7238 29.0293 11.1634C28.8914 10.6031 28.3224 10.2583 27.7621 10.3962C14.9263 13.5168 8.40064 10.4393 8.34029 10.3962C7.82307 10.1376 7.19378 10.3531 6.93517 10.8703C6.67655 11.3876 6.88344 12.0169 7.40067 12.2755C7.54722 12.3444 9.37474 13.2323 12.8919 13.6633C12.9005 15.284 12.6936 18.1804 11.6074 19.2235C11.1936 19.6287 11.1764 20.2924 11.5816 20.7062C11.9867 21.12 12.6505 21.1372 13.0643 20.7321C14.7453 19.1114 14.9866 15.6978 14.9952 13.8961H21.2623V29.8525C21.2623 30.2921 21.5381 30.6887 21.9519 30.8352C22.0726 30.8783 22.1933 30.8955 22.314 30.8955C22.6157 30.8955 22.9088 30.7662 23.1157 30.5249C23.8053 29.7059 27.2966 25.5854 27.8397 24.6975C28.4776 23.6372 28.7017 23.6458 29.9344 23.6975C30.2965 23.7061 30.7016 23.7234 31.1758 23.7147C32.5033 23.6803 33.2791 23.1286 33.6929 22.6717C34.5377 21.7493 34.5463 20.5683 34.5377 20.3011L34.555 20.3097Z" fill="#4D59E6"/>
<path d="M14.9777 8.13782C14.9777 7.05164 14.0984 6.17236 13.0123 6.17236C11.9261 6.17236 11.0468 7.05164 11.0468 8.13782C11.0468 9.22399 11.9261 10.1033 13.0123 10.1033C14.0984 10.1033 14.9777 9.22399 14.9777 8.13782Z" fill="#4D59E6"/>
<path d="M24.1929 8.13782C24.1929 7.05164 23.3136 6.17236 22.2274 6.17236C21.1412 6.17236 20.262 7.05164 20.262 8.13782C20.262 9.22399 21.1412 10.1033 22.2274 10.1033C23.3136 10.1033 24.1929 9.22399 24.1929 8.13782Z" fill="#4D59E6"/>
<path d="M40.5031 17.2838L42.4944 15.9477C42.753 16.5597 44.0202 17.5424 45.3823 17.5424C46.3909 17.5424 46.9339 17.2407 46.9339 16.5339C46.9339 15.6632 45.5461 15.4304 44.7099 15.146C43.8651 14.8615 40.9772 14.1805 40.9772 11.8185C40.9772 9.4565 42.9944 8.53412 45.3133 8.53412C47.6322 8.53412 49.227 9.63753 49.7701 10.8099L47.8736 12.034C47.546 11.5168 46.3736 10.7668 45.2271 10.7668C44.2616 10.7668 43.8392 11.1375 43.8392 11.6806C43.8392 12.5512 45.1754 12.784 46.0202 13.0685C46.865 13.3529 49.7959 14.1029 49.7959 16.4218C49.7959 18.7407 48.1063 19.8958 45.3392 19.8958C42.572 19.8958 41.0462 18.6028 40.5031 17.2925V17.2838Z" fill="#4D59E6"/>
<path d="M51.3131 14.1635C51.3131 10.905 53.6148 8.56021 56.8733 8.56021C60.1318 8.56021 62.4334 10.905 62.4334 14.1635C62.4334 17.422 60.1577 19.7926 56.8733 19.7926C53.5889 19.7926 51.3131 17.3789 51.3131 14.1635ZM59.5456 14.1635C59.5456 12.5428 58.4939 11.3532 56.8733 11.3532C55.2526 11.3532 54.2009 12.5515 54.2009 14.1635C54.2009 15.7755 55.2785 16.9737 56.8733 16.9737C58.4681 16.9737 59.5456 15.7755 59.5456 14.1635Z" fill="#4D59E6"/>
<path d="M64.2092 14.1633C64.2092 10.9048 66.4592 8.58591 69.7177 8.58591C71.6142 8.58591 73.1658 9.43071 74.1055 10.7669L72.0193 12.3875C71.64 11.9392 70.9849 11.3531 69.7953 11.3531C68.1746 11.3531 67.0712 12.5513 67.0712 14.1633C67.0712 15.7753 68.1746 16.9736 69.7953 16.9736C70.9935 16.9736 71.6228 16.4822 72.0193 15.9908L74.1055 17.5598C73.1658 18.9218 71.6228 19.7666 69.7177 19.7666C66.4592 19.7666 64.2092 17.4218 64.2092 14.1633Z" fill="#4D59E6"/>
<path d="M76.045 5.5344C76.045 4.52581 76.864 3.98273 77.6657 3.98273C78.4674 3.98273 79.2863 4.52581 79.2863 5.5344C79.2863 6.54299 78.4415 7.17228 77.6657 7.17228C76.8898 7.17228 76.045 6.56023 76.045 5.5344ZM76.183 8.76705H79.1398L79.1139 19.5512H76.183V8.76705Z" fill="#4D59E6"/>
<path d="M81.4673 14.1633C81.4673 10.9048 83.6224 8.60315 86.5792 8.60315C87.9412 8.60315 88.9498 9.09451 89.6739 9.91345V8.76694H92.6049V19.5511H89.6739V18.4218C88.9498 19.2407 87.9412 19.7321 86.5792 19.7321C83.6224 19.7321 81.4673 17.3615 81.4673 14.1461V14.1633ZM89.6739 14.1633C89.6739 12.5427 88.6222 11.3531 87.0016 11.3531C85.3809 11.3531 84.3034 12.5513 84.3034 14.1633C84.3034 15.7753 85.3809 16.9736 87.0016 16.9736C88.6222 16.9736 89.6739 15.7753 89.6739 14.1633Z" fill="#4D59E6"/>
<path d="M95.1825 4.31021H98.1393L98.1134 19.5511H95.1825V4.31021Z" fill="#4D59E6"/>
<path d="M100.717 8.76694H103.648V9.91345C104.372 9.09451 105.38 8.60315 106.742 8.60315C109.699 8.60315 111.854 10.9738 111.854 14.1806C111.854 17.3873 109.699 19.7407 106.742 19.7407C105.38 19.7407 104.372 19.2494 103.648 18.4304V23.8699H100.717V8.76694ZM109.018 14.1806C109.018 12.5599 107.941 11.3444 106.32 11.3444C104.699 11.3444 103.648 12.5685 103.648 14.1806C103.648 15.7926 104.699 16.9736 106.32 16.9736C107.941 16.9736 109.018 15.8012 109.018 14.1806Z" fill="#4D59E6"/>
<path d="M114.035 5.5344C114.035 4.52581 114.854 3.98273 115.656 3.98273C116.458 3.98273 117.277 4.52581 117.277 5.5344C117.277 6.54299 116.432 7.17228 115.656 7.17228C114.88 7.17228 114.035 6.56023 114.035 5.5344ZM114.173 8.76705H117.13L117.104 19.5512H114.173V8.76705Z" fill="#4D59E6"/>
<path d="M119.449 14.1635C119.449 10.9481 121.561 8.56021 124.819 8.56021C128.078 8.56021 130 10.9567 130 14.1635V14.9652H122.259C122.543 16.422 123.595 17.2841 124.931 17.2841C126.362 17.2841 127.112 16.6289 127.492 16.1376L129.483 17.5944C128.543 18.9564 126.905 19.8012 124.931 19.8012C121.621 19.8012 119.44 17.3875 119.44 14.1721L119.449 14.1635ZM127.259 13.1118C127 11.8446 126.207 10.8877 124.819 10.8877C123.431 10.8877 122.595 11.7584 122.311 13.1118H127.259Z" fill="#4D59E6"/>
</g>
<defs>
<clipPath id="clip0_8_673">
<rect width="130.004" height="30.9128" fill="white"/>
</clipPath>
</defs>
</svg>
